# xmcd
#
# Track frame offsets:
#	150
#	14607
#	25955
#	41225
#	52290
#	66995
#	79545
#	91500
#	106730
#	118397
#	131520
#	143475
#	156730
#	168730
#	184220
#	198102
#	210767
#
# Disc length: 2956 seconds
#
# Revision: 0
# Processed by: cddbd v1.5.1PL2 Copyright (c) Steve Scherf et al.
# Submitted via: dBpowerAMP V4.0
#
DISCID=ef0b8a11
DTITLE=Cliff Waldron - The Best Of Cliff Waldron
DYEAR=1999
DGENRE=Bluegrass
TTITLE0=Wash My Face In The Morning Dew 
TTITLE1=I'm Lonesome Without You 
TTITLE2=Four Strong Winds 
TTITLE3=Sunny Side Of My Life 
TTITLE4=Falling Leaves 
TTITLE5=Thinking About You 
TTITLE6=Ice Covered Birches 
TTITLE7=Satan's Jeweled Crown 
TTITLE8=Your Love Is Like A Flower 
TTITLE9=Violet And The Rose 
TTITLE10=Brand New Wagon 
TTITLE11=Silver Wings 
TTITLE12=I'm Lost And I'll Never Find The Way 
TTITLE13=Veil Of White Lace 
TTITLE14=Loving You So Long Now 
TTITLE15=Close The Door Lightly When You Go 
TTITLE16=Nobody's Love Is Like Mine 
EXTD=
EXTT0=
EXTT1=
EXTT2=
EXTT3=
EXTT4=
EXTT5=
EXTT6=
EXTT7=
EXTT8=
EXTT9=
EXTT10=
EXTT11=
EXTT12=
EXTT13=
EXTT14=
EXTT15=
EXTT16=
PLAYORDER=
